<svg version="1.1" id="Calque_1" xmlns="http://www.w3.org/2000/svg" xmlns:xlink="http://www.w3.org/1999/xlink" x="0px" y="0px"
        viewBox="0 0 500 477" style="enable-background:new 0 0 500 477;" xml:space="preserve">
<path d="M106.9,108.1H33l-14.6,34.1H-1.8L60.4,2.1h20l62,140.1h-20.8L106.9,108.1z M99.5,90.6L69.8,22.6L40.6,90.6H99.5z"/>
<path d="M265,22.5c-7.1-3.1-14.3-4.6-21.8-4.6c-9.9,0-19,2.4-27.2,7.2c-8.2,4.8-14.8,11.3-19.7,19.5c-4.7,8.2-7.2,17.2-7.2,27.1
                c0,9.8,2.4,18.8,7.2,27c4.8,8.2,11.3,14.8,19.7,19.7c8.3,4.8,17.3,7.2,27.2,7.2c7.4,0,14.5-1.5,21.6-4.5c7.1-3,13.4-7.1,18.8-12.3
                l11.6,12.6c-7.1,7-15.3,12.4-24.6,16.3c-9.3,4-18.8,5.9-28.5,5.9c-13.4,0-25.6-3.2-36.6-9.5c-11-6.3-19.8-15-26.2-25.9
                c-6.4-10.9-9.6-23-9.6-36.2c0-13.1,3.2-25.1,9.7-35.9c6.5-10.8,15.3-19.5,26.5-25.8c11.2-6.3,23.5-9.4,37.1-9.4
                c9.8,0,19.2,1.8,28.4,5.5c9.1,3.7,17,8.8,23.7,15.5l-11.5,13.9C278.2,30,272.1,25.7,265,22.5"/>
<polygon points="436.1,2 436.1,19.6 390.9,19.6 390.9,142.1 371.7,142.1 371.7,19.6 326.6,19.6 326.6,2 "/>
<rect x="480.8" y="2" width="19.2" height="140.1"/>
<g>
<polygon points="287.7,286.3 313.5,286.3 300.6,254.1                 "/>
<path d="M-1.8,168.3v183.1c0,19.2,15.5,34.7,34.7,34.7H500V202.9c0-19.2-15.5-34.7-34.7-34.7H-1.8z M122.8,312.5
                               c-3.4,4.9-8.4,8.7-15.1,11.7c-6.7,2.9-14.8,4.4-24.4,4.4c-8.1,0.1-16-0.9-23.6-2.9c-7.6-2-13.8-4.7-18.7-8.1l9.3-20.9
                               c4.5,3,9.7,5.4,15.6,7.2c5.9,1.8,11.8,2.8,17.5,2.8c10.9,0,16.3-2.8,16.3-8.2c0-2.9-1.6-5-4.7-6.4c-3.1-1.4-8.1-2.8-15-4.4
                               c-7.6-1.7-13.8-3.4-18.9-5.2c-5.1-1.9-9.4-4.8-13.1-9c-3.7-4.1-5.4-9.6-5.4-16.7c0-6.1,1.7-11.6,5-16.6c3.4-5,8.3-8.8,15-11.7
                               c6.6-2.9,14.8-4.3,24.5-4.3c6.6,0,13.1,0.8,19.5,2.2c6.4,1.5,12.1,3.7,16.9,6.5l-8.7,21.1c-9.6-5.2-18.9-7.7-27.8-7.7
                               c-5.6,0-9.8,0.8-12.3,2.5c-2.5,1.7-3.9,3.9-3.9,6.5s1.5,4.7,4.6,6c3,1.3,8,2.8,14.8,4.1c7.6,1.7,14,3.4,19,5.2
                               c5,1.9,9.4,4.8,13.1,8.9c3.7,4.1,5.5,9.6,5.5,16.6C127.8,302.2,126.2,307.7,122.8,312.5z M234.4,248.8h-30.7v77.9h-28.4v-77.9
                               h-30.9v-22.5h90V248.8z M329.6,326.7l-7.9-19.5h-42.5l-7.9,19.5h-29l44.4-100.4h28l44.5,100.4H329.6z M457.2,248.8h-30.7v77.9
                               h-28.4v-77.9h0h-30.9v-22.5h90V248.8z"/>
</g>
<g>
<path d="M453.3,424.5c-1.3-1.1-3-1.7-5.2-1.7c-2,0-3.6,0.5-4.9,1.6c-1.3,1.1-1.9,2.6-1.9,4.4c0,1.9,0.6,3.3,1.9,4.4
                               c1.3,1.1,2.9,1.7,5,1.7c2.1,0,3.7-0.6,5-1.7c1.3-1.1,1.9-2.6,1.9-4.4C455.2,427,454.6,425.6,453.3,424.5z"/>
<path d="M461,399H355.2c-21.5,0-39,17.5-39,39v0c0,21.5,17.5,39,39,39H461c21.5,0,39-17.5,39-39v0C500,416.5,482.5,399,461,399z
                               M367,457.1h-9.3l-13.1-31.2h9.3l8.7,21.3l8.9-21.3h8.7L367,457.1z M413.6,457.1h-30.7V451l15.7-14.8c1.7-1.6,2.8-3,3.4-4.1
                               c0.6-1.1,0.9-2.3,0.9-3.4c0-1.6-0.6-2.9-1.7-3.7c-1.1-0.9-2.7-1.3-4.8-1.3c-1.8,0-3.4,0.3-4.8,1c-1.4,0.7-2.6,1.7-3.6,3l-6.9-4.4
                               c1.6-2.4,3.8-4.2,6.6-5.5c2.8-1.3,6-2,9.6-2c3,0,5.7,0.5,7.9,1.5c2.3,1,4,2.4,5.3,4.2c1.3,1.8,1.9,3.9,1.9,6.4
                               c0,2.2-0.5,4.3-1.4,6.2c-0.9,1.9-2.7,4.1-5.4,6.6l-9.3,8.8h17.5V457.1z M427.4,455.9c-1.1,1.1-2.4,1.6-4,1.6c-1.6,0-2.9-0.5-4-1.6
                               c-1.1-1.1-1.6-2.4-1.6-4.1c0-1.7,0.5-3,1.6-4c1.1-1,2.4-1.5,4-1.5c1.6,0,2.9,0.5,4,1.5c1.1,1,1.6,2.4,1.6,4
                               C429,453.5,428.5,454.9,427.4,455.9z M463.1,447.8c-1.7,3.3-4.2,5.8-7.3,7.5c-3.1,1.7-6.8,2.6-10.9,2.6c-2.2,0-4.2-0.2-6.2-0.7
                               c-2-0.5-3.7-1.2-5.1-2.1l3.5-6.9c2,1.4,4.5,2,7.6,2c3.4,0,6.2-1,8.2-3c2-2,3.1-5,3.3-8.8c-2.4,2.4-5.8,3.7-10.1,3.7
                               c-2.6,0-5-0.5-7.1-1.6c-2.1-1-3.8-2.5-5.1-4.4c-1.2-1.9-1.9-4.1-1.9-6.6c0-2.7,0.7-5.1,2-7.1c1.4-2.1,3.2-3.6,5.5-4.7
                               c2.3-1.1,4.9-1.7,7.8-1.7c5.7,0,10.1,1.7,13.4,5.2c3.2,3.5,4.8,8.4,4.8,15C465.7,440.5,464.8,444.5,463.1,447.8z"/>
</g>
        </svg>
