<svg xmlns="http://www.w3.org/2000/svg" viewBox="0 0 1920.0 477.1" width="1920" height="477">
    <path d="M383.4,331c-15.9,29-41.1,50.3-68.4,59.4c19.5-2.5,38.8-9.4,56.4-20.2c7.1-4.3,13.7-9.2,19.7-14.4c4.6-12.9,7.8-27,9-41.8
		c1-12,0.8-23.9-0.5-35.3C398.1,296.1,392.8,314,383.4,331z"/>
    <path d="M297.9,400.8c-13.8,0-27.1-2.1-39.4-6.1c12.7,17.8,29.7,29.3,49.3,31c1.7,0.2,3.3,0.2,5,0.2c28.3,0,54.4-20.8,70.7-52.6
		c-2.3,1.6-4.7,3.2-7.2,4.7C352,392.9,324.9,400.8,297.9,400.8z"/>
    <path d="M258.9,213.7c1.7-2.1,3.4-4.2,5.2-6.1c-13.2,10-24.9,23.4-33.6,39.3c-22,39.9-20.1,85.2,1.7,113.1
		c-5.3-18.9-7.2-39.7-5.3-61C229.8,266.3,241.1,236.1,258.9,213.7z"/>
    <path d="M375.3,326.5c21.6-39.3,20.1-83.8-0.8-111.8c-5.9-7.4-12.6-13.5-19.8-17.9c-0.6-0.3-1.2-0.7-1.8-1
		c-7.3-4-15.2-6.6-23.6-7.7c-0.3,0-0.6-0.1-0.8-0.1c-1.6-0.1-3.3-0.2-5-0.2c-43.5,0-81.9,49.2-87.4,112
		c-2.4,27.4,1.8,53.2,10.8,74.2c1.9,1.3,3.8,2.5,5.9,3.7c10.1,5.5,21.2,8.3,33.1,8.3C320.4,385.9,355.4,362.6,375.3,326.5z"/>
    <path d="M235.3,0.7C103.7,0.7-3,107.4-3,239c0,131.6,106.7,238.3,238.3,238.3c131.6,0,238.3-106.7,238.3-238.3
		C473.6,107.4,366.9,0.7,235.3,0.7z M399,361.2c-5.4,14.4-12.7,27.6-21.6,38.8c-18.1,22.7-41,35.2-64.6,35.2c-1.9,0-3.9-0.1-5.8-0.3
		c-24.7-2.2-46.6-17.7-61.7-43.8c-0.4-0.8-0.9-1.5-1.3-2.3c-17.9-8.7-32.9-21.8-43.1-38.5c-33.2-54.2-8.4-129.9,55.1-168.8
		c24.3-14.8,51.4-22.7,78.4-22.7c41.4,0,77.7,18.9,97,50.5C460.3,256.4,445.3,319.9,399,361.2z"/>
    <path d="M423.5,214.1c-17.6-28.8-51-46-89.1-46c-25.3,0-50.7,7.4-73.5,21.3c-59.2,36.2-82.6,106.2-52.1,156.1
		c4,6.6,8.9,12.6,14.5,17.9c-22.4-30.9-24.1-78.9-0.9-121c21.5-39,59.7-64.2,97.4-64.2c3.7,0,7.2,0.2,10.8,0.7
		c10.7,1.1,20.8,4.8,30.1,10.7c8,4.9,14.9,11.2,20.5,18.6c3.5,4.4,6.8,9.2,9.9,14.4c14.8,25.6,21.3,58.3,18.4,92.3
		c-0.8,9.4-2.4,18.5-4.6,27.4C438.3,304.3,447.3,253.1,423.5,214.1z"/>
    <path d="M686.8,228.8h-76.3L595.4,264h-20.9l64.3-144.7h20.7L723.5,264H702L686.8,228.8z M679.1,210.8l-30.6-70.3l-30.2,70.3H679.1z
		"/>
    <path d="M870.1,140.4c-7.3-3.2-14.8-4.8-22.5-4.8c-10.2,0-19.6,2.5-28.1,7.4c-8.5,5-15.3,11.7-20.3,20.1c-4.9,8.5-7.4,17.8-7.4,28
		c0,10.1,2.5,19.4,7.4,27.9c5,8.5,11.7,15.3,20.3,20.3c8.6,5,17.9,7.4,28.1,7.4c7.6,0,15-1.6,22.3-4.6c7.3-3.1,13.8-7.3,19.4-12.7
		l12,13c-7.3,7.2-15.8,12.8-25.4,16.8c-9.6,4.1-19.4,6.1-29.4,6.1c-13.8,0-26.4-3.3-37.8-9.8c-11.4-6.5-20.5-15.5-27.1-26.8
		c-6.6-11.3-9.9-23.8-9.9-37.4c0-13.5,3.3-25.9,10-37.1c6.7-11.2,15.8-20.1,27.4-26.6c11.6-6.5,24.3-9.7,38.3-9.7
		c10.1,0,19.8,1.9,29.3,5.7c9.4,3.8,17.6,9.1,24.5,16L889.3,154C883.8,148.2,877.4,143.7,870.1,140.4"/>
    <polygon points="1066.9,119.2 1066.9,137.4 1020.2,137.4 1020.2,264 1000.4,264 1000.4,137.4 953.8,137.4 953.8,119.2 " fill="currentColor"/>
    <rect x="1133.1" y="119.2" width="19.8" height="144.7" fill="currentColor"/>
    <path d="M1249,263c-11.1-2.9-20.1-6.8-27.1-11.7l13.5-30.4c6.5,4.3,14.1,7.8,22.7,10.4c8.6,2.6,17.1,4,25.4,4
		c15.8,0,23.7-4,23.7-11.9c0-4.2-2.3-7.3-6.8-9.3c-4.5-2-11.8-4.1-21.8-6.4c-11-2.4-20.1-4.9-27.5-7.6c-7.4-2.7-13.7-7-19-13
		c-5.3-6-7.9-14-7.9-24.2c0-8.9,2.4-16.9,7.3-24.1c4.9-7.2,12.1-12.8,21.8-17c9.6-4.2,21.5-6.2,35.5-6.2c9.6,0,19,1.1,28.3,3.2
		c9.3,2.2,17.5,5.3,24.6,9.5l-12.7,30.6c-13.9-7.5-27.4-11.2-40.4-11.2c-8.2,0-14.2,1.2-17.9,3.6c-3.7,2.4-5.6,5.6-5.6,9.5
		c0,3.9,2.2,6.8,6.7,8.7c4.4,1.9,11.6,4,21.5,6c11.1,2.4,20.3,4.9,27.6,7.6c7.3,2.7,13.6,7,19,12.9c5.3,5.9,8,13.9,8,24.1
		c0,8.7-2.4,16.7-7.3,23.7c-4.9,7.1-12.2,12.7-21.9,17c-9.7,4.2-21.5,6.4-35.4,6.4C1271.6,267.3,1260.1,265.9,1249,263z"/>
    <path d="M1436.8,151.3H1392v-32.7h130.6v32.7h-44.6v113.1h-41.2V151.3z"/>
    <path d="M1669.4,236.1h-61.7l-11.5,28.3h-42.1l64.4-145.8h40.6l64.6,145.8h-42.9L1669.4,236.1z M1657.4,205.7l-18.7-46.7l-18.7,46.7
		H1657.4z"/>
    <path d="M1800.2,151.3h-44.8v-32.7H1886v32.7h-44.6v113.1h-41.2V151.3z"/>
    <path d="M1315.1,326.6c3.3,1.8,5.8,4.4,7.7,7.7c1.9,3.3,2.8,7.1,2.8,11.4c0,4.3-0.9,8-2.8,11.4c-1.9,3.3-4.4,5.9-7.7,7.8
		c-3.3,1.9-6.9,2.8-11,2.8c-3.6,0-6.8-0.8-9.7-2.3c-2.9-1.5-5.2-3.7-6.9-6.6v8.5h-5.6v-60.7h5.8v25.8c1.8-2.8,4.1-4.9,6.9-6.3
		c2.8-1.4,6-2.2,9.4-2.2C1308.1,323.9,1311.8,324.8,1315.1,326.6z M1311.9,360.4c2.5-1.4,4.4-3.4,5.8-5.9c1.4-2.6,2.1-5.5,2.1-8.7
		c0-3.3-0.7-6.2-2.1-8.7c-1.4-2.6-3.3-4.5-5.8-5.9c-2.5-1.4-5.2-2.1-8.2-2.1c-3.1,0-5.8,0.7-8.2,2.1c-2.4,1.4-4.3,3.4-5.7,5.9
		c-1.4,2.6-2.1,5.5-2.1,8.7c0,3.3,0.7,6.2,2.1,8.7c1.4,2.6,3.3,4.5,5.7,5.9c2.4,1.4,5.2,2.1,8.2,2.1
		C1306.7,362.5,1309.4,361.8,1311.9,360.4z"/>
    <path d="M1398.4,324.2l-21.5,48.2c-1.7,4-3.8,6.9-6.1,8.6c-2.3,1.7-5,2.5-8.3,2.5c-2.1,0-4-0.3-5.8-1c-1.8-0.7-3.4-1.6-4.7-2.9
		l2.7-4.3c2.2,2.2,4.8,3.3,7.8,3.3c2,0,3.6-0.5,5-1.6c1.4-1.1,2.7-2.9,3.9-5.6l1.9-4.2l-19.2-42.9h6l16.2,36.5l16.2-36.5H1398.4z"/>
    <path d="M1485.4,361.4c-4.6-4.5-6.8-11-6.8-19.4v-32h13.2v31.6c0,10.2,4.3,15.4,12.8,15.4c4.1,0,7.3-1.2,9.5-3.7
		c2.2-2.5,3.3-6.4,3.3-11.6V310h13.1v32c0,8.4-2.3,14.9-6.8,19.4c-4.6,4.5-10.9,6.8-19.1,6.8C1496.3,368.2,1489.9,365.9,1485.4,361.4
		z"/>
    <path d="M1621.7,367.2l-0.1-34.3l-16.8,28.3h-6l-16.8-27.6v33.6h-12.4V310h11l21.4,35.6l21.1-35.6h10.9l0.2,57.2H1621.7z"/>
    <path d="M1711.6,355H1685l-5.1,12.3h-13.6l25.5-57.2h13.1l25.6,57.2h-13.9L1711.6,355z M1707.4,344.9l-9.1-21.9l-9.1,21.9H1707.4z"
    />
    <path d="M1814.8,367.2l-0.1-34.3l-16.8,28.3h-6l-16.8-27.6v33.6h-12.4V310h11l21.4,35.6l21.1-35.6h10.9l0.2,57.2H1814.8z"/>
    <path d="M1866.9,310h13.2v57.2h-13.2V310z"/>
</svg>
